<svg width="40" height="40" viewBox="0 0 40 40" fill="none" xmlns="http://www.w3.org/2000/svg">
<g clip-path="url(#clip0_1_2376)">
<path d="M15.8333 13.3333H2.5C1.12167 13.3333 0 12.2117 0 10.8333V2.5C0 1.12167 1.12167 0 2.5 0H15.8333C17.2117 0 18.3333 1.12167 18.3333 2.5V10.8333C18.3333 12.2117 17.2117 13.3333 15.8333 13.3333ZM2.5 1.66667C2.04167 1.66667 1.66667 2.04 1.66667 2.5V10.8333C1.66667 11.2933 2.04167 11.6667 2.5 11.6667H15.8333C16.2917 11.6667 16.6667 11.2933 16.6667 10.8333V2.5C16.6667 2.04 16.2917 1.66667 15.8333 1.66667H2.5Z" fill="#255B2D"/>
<path d="M15.8333 40.0001H2.5C1.12167 40.0001 0 38.8784 0 37.5001V19.1667C0 17.7884 1.12167 16.6667 2.5 16.6667H15.8333C17.2117 16.6667 18.3333 17.7884 18.3333 19.1667V37.5001C18.3333 38.8784 17.2117 40.0001 15.8333 40.0001ZM2.5 18.3334C2.04167 18.3334 1.66667 18.7067 1.66667 19.1667V37.5001C1.66667 37.9601 2.04167 38.3334 2.5 38.3334H15.8333C16.2917 38.3334 16.6667 37.9601 16.6667 37.5001V19.1667C16.6667 18.7067 16.2917 18.3334 15.8333 18.3334H2.5Z" fill="#255B2D"/>
<path d="M37.5 40.0001H24.1667C22.7883 40.0001 21.6667 38.8784 21.6667 37.5001V29.1667C21.6667 27.7884 22.7883 26.6667 24.1667 26.6667H37.5C38.8783 26.6667 40 27.7884 40 29.1667V37.5001C40 38.8784 38.8783 40.0001 37.5 40.0001ZM24.1667 28.3334C23.7083 28.3334 23.3333 28.7067 23.3333 29.1667V37.5001C23.3333 37.9601 23.7083 38.3334 24.1667 38.3334H37.5C37.9583 38.3334 38.3333 37.9601 38.3333 37.5001V29.1667C38.3333 28.7067 37.9583 28.3334 37.5 28.3334H24.1667Z" fill="#255B2D"/>
<path d="M37.5 23.3333H24.1667C22.7883 23.3333 21.6667 22.2117 21.6667 20.8333V2.5C21.6667 1.12167 22.7883 0 24.1667 0H37.5C38.8783 0 40 1.12167 40 2.5V20.8333C40 22.2117 38.8783 23.3333 37.5 23.3333ZM24.1667 1.66667C23.7083 1.66667 23.3333 2.04 23.3333 2.5V20.8333C23.3333 21.2933 23.7083 21.6667 24.1667 21.6667H37.5C37.9583 21.6667 38.3333 21.2933 38.3333 20.8333V2.5C38.3333 2.04 37.9583 1.66667 37.5 1.66667H24.1667Z" fill="#255B2D"/>
</g>
<defs>
<clipPath id="clip0_1_2376">
<rect width="40" height="40" fill="white"/>
</clipPath>
</defs>
</svg>
