<svg width="40" height="40" viewBox="0 0 40 40" fill="none" xmlns="http://www.w3.org/2000/svg">
<g clip-path="url(#clip0_1_2367)">
<path d="M28.1474 8.99142V0.624775C28.1474 0.279854 28.427 0.000244141 28.772 0.000244141H37.8184C38.1634 0.000244141 38.443 0.279854 38.443 0.624775C38.443 0.969697 38.1634 1.24931 37.8184 1.24931H29.3964V8.36689H37.1939V5.49603L35.4876 7.04446C35.3683 7.15274 35.218 7.20649 35.068 7.20649C34.9078 7.20649 34.748 7.14525 34.6263 7.0236L32.8524 5.2497C32.6085 5.00579 32.6085 4.6104 32.8524 4.36649C33.0963 4.12259 33.4917 4.12259 33.7356 4.36649L35.0888 5.7197L38.9556 2.21079C39.211 1.97899 39.6059 1.99821 39.8377 2.25353C40.0695 2.50899 40.0504 2.90392 39.795 3.13571L38.443 4.36259V8.99142C38.443 9.33634 38.1634 9.61595 37.8184 9.61595H28.7719C28.427 9.61587 28.1474 9.33634 28.1474 8.99142ZM28.7719 24.8078H37.8184C38.1633 24.8078 38.4429 24.5282 38.4429 24.1833V19.5659C38.4429 19.5623 38.4424 19.5587 38.4424 19.5549L39.7949 18.3276C40.0503 18.0958 40.0695 17.7009 39.8377 17.4454C39.6059 17.19 39.2109 17.1708 38.9555 17.4027L35.0888 20.9116L33.7356 19.5584C33.4916 19.3145 33.0963 19.3145 32.8524 19.5584C32.6084 19.8023 32.6084 20.1977 32.8524 20.4416L34.6263 22.2155C34.7479 22.3371 34.9077 22.3984 35.0679 22.3984C35.2179 22.3984 35.3682 22.3446 35.4875 22.2363L37.1938 20.6879V23.5588H29.3963V16.4434H37.8184C38.1633 16.4434 38.4429 16.1638 38.4429 15.8189C38.4429 15.474 38.1633 15.1944 37.8184 15.1944H28.7719C28.427 15.1944 28.1474 15.474 28.1474 15.8189V24.1833C28.1474 24.5282 28.427 24.8078 28.7719 24.8078ZM39.8377 32.6374C39.6059 32.382 39.211 32.3628 38.9556 32.5946L35.0888 36.1035L33.7356 34.7503C33.4917 34.5064 33.0963 34.5064 32.8524 34.7503C32.6085 34.9942 32.6085 35.3896 32.8524 35.6335L34.6263 37.4074C34.748 37.5291 34.9078 37.5903 35.068 37.5903C35.218 37.5903 35.3683 37.5366 35.4876 37.4283L37.1939 35.8799V38.7508H29.3964V31.6354H37.8184C38.1634 31.6354 38.443 31.3558 38.443 31.0109C38.443 30.666 38.1634 30.3863 37.8184 30.3863H28.7719C28.427 30.3863 28.1474 30.666 28.1474 31.0109V39.3752C28.1474 39.7202 28.427 39.9998 28.7719 39.9998H37.8184C38.1633 39.9998 38.4429 39.7202 38.4429 39.3752V34.7465L39.7949 33.5196C40.0503 33.2878 40.0695 32.8928 39.8377 32.6374ZM26.3602 5.43259C26.7052 5.43259 26.9848 5.15298 26.9848 4.80806C26.9848 4.46314 26.7052 4.18353 26.3602 4.18353H23.1491C22.8042 4.18353 22.5245 4.46314 22.5245 4.80806V19.3755H21.0053C20.6604 19.3755 20.3808 19.6551 20.3808 20C20.3808 20.3449 20.6604 20.6245 21.0053 20.6245H22.5245V35.192C22.5245 35.5369 22.8042 35.8165 23.1491 35.8165H26.3602C26.7052 35.8165 26.9848 35.5369 26.9848 35.192C26.9848 34.847 26.7052 34.5674 26.3602 34.5674H23.7736V20.6245H26.3602C26.7052 20.6245 26.9848 20.3449 26.9848 20C26.9848 19.6551 26.7052 19.3755 26.3602 19.3755H23.7736V5.43259H26.3602ZM17.5809 12.6542C17.6923 12.7704 17.7545 12.9252 17.7545 13.0861V31.797C17.7545 32.1419 17.4749 32.4215 17.1299 32.4215H0.624775C0.279854 32.4215 0.000244141 32.1419 0.000244141 31.797V8.20306C0.000244141 7.85814 0.279854 7.57853 0.624775 7.57853H12.4527C12.6231 7.57853 12.7859 7.64806 12.9038 7.77103L17.5809 12.6542ZM12.8713 12.4617H15.667L12.8713 9.5429V12.4617ZM16.5055 31.1725V13.7106H12.2469C11.902 13.7106 11.6224 13.431 11.6224 13.0861V8.82751H1.24931V31.1725H16.5055ZM3.62774 14.4481H9.73556C10.0805 14.4481 10.3601 14.1685 10.3601 13.8236C10.3601 13.4787 10.0805 13.1991 9.73556 13.1991H3.62774C3.28282 13.1991 3.00321 13.4787 3.00321 13.8236C3.00321 14.1685 3.28282 14.4481 3.62774 14.4481ZM14.127 17.3181H3.62774C3.28282 17.3181 3.00321 17.5977 3.00321 17.9427C3.00321 18.2876 3.28282 18.5672 3.62774 18.5672H14.127C14.472 18.5672 14.7516 18.2876 14.7516 17.9427C14.7516 17.5977 14.4719 17.3181 14.127 17.3181ZM14.127 21.4351H3.62774C3.28282 21.4351 3.00321 21.7147 3.00321 22.0596C3.00321 22.4045 3.28282 22.6842 3.62774 22.6842H14.127C14.472 22.6842 14.7516 22.4045 14.7516 22.0596C14.7516 21.7147 14.4719 21.4351 14.127 21.4351ZM14.127 25.5519H3.62774C3.28282 25.5519 3.00321 25.8315 3.00321 26.1764C3.00321 26.5213 3.28282 26.801 3.62774 26.801H14.127C14.472 26.801 14.7516 26.5213 14.7516 26.1764C14.7516 25.8315 14.4719 25.5519 14.127 25.5519Z" fill="#255B2D"/>
</g>
<defs>
<clipPath id="clip0_1_2367">
<rect width="40" height="40" fill="white"/>
</clipPath>
</defs>
</svg>
